<svg width="32" height="37" viewBox="0 0 32 37" fill="none" xmlns="http://www.w3.org/2000/svg">
<g filter="url(#filter0_d_348_155)">
<mask id="path-1-outside-1_348_155" maskUnits="userSpaceOnUse" x="3" y="2" width="26" height="31" fill="black">
<rect fill="white" x="3" y="2" width="26" height="31"/>
<path fill-rule="evenodd" clip-rule="evenodd" d="M10.6447 20.0588L9.10873 17.7479C8.05996 16.17 5.82601 15.5943 4.11724 16.4594L4.5154 16.2578C4.09133 16.4725 3.88799 17.0077 4.06259 17.4525L6.18871 22.8691C6.52576 23.7278 7.38659 24.9422 8.09991 25.5523C8.09991 25.5523 12.3771 29.0383 12.3771 30.3453V32H19.3067L21.0391 28.5882L22.7715 32H24.5039V30.3453C24.5039 29.0383 27.1178 24.9217 27.1178 24.9217C27.5989 24.1215 28 22.7119 28 21.7759V14.8931C27.9687 13.3692 26.6532 12.1342 25.03 12.1342C24.218 12.1342 23.5603 12.7517 23.5603 13.5141V14.0653C23.5603 12.5415 22.2448 11.3065 20.6216 11.3065C19.8096 11.3065 19.1519 11.924 19.1519 12.6863V13.2376C19.1519 11.7137 17.8364 10.4787 16.2132 10.4787C15.4012 10.4787 14.7435 11.0962 14.7435 11.8586V12.4099C14.7435 12.1649 14.7169 11.9703 14.6655 11.816L14.2172 4.70795C14.1566 3.74677 13.3339 3 12.3771 3C11.4136 3 10.6447 3.7636 10.6447 4.70555V11.5294V20.0588ZM22.8028 18.3529H24.5352V25.1765H22.8028V18.3529ZM19.338 18.3529H21.0704V25.1765H19.338V18.3529ZM15.8732 18.3529H17.6056V25.1765H15.8732V18.3529Z"/>
</mask>
<path fill-rule="evenodd" clip-rule="evenodd" d="M10.6447 20.0588L9.10873 17.7479C8.05996 16.17 5.82601 15.5943 4.11724 16.4594L4.5154 16.2578C4.09133 16.4725 3.88799 17.0077 4.06259 17.4525L6.18871 22.8691C6.52576 23.7278 7.38659 24.9422 8.09991 25.5523C8.09991 25.5523 12.3771 29.0383 12.3771 30.3453V32H19.3067L21.0391 28.5882L22.7715 32H24.5039V30.3453C24.5039 29.0383 27.1178 24.9217 27.1178 24.9217C27.5989 24.1215 28 22.7119 28 21.7759V14.8931C27.9687 13.3692 26.6532 12.1342 25.03 12.1342C24.218 12.1342 23.5603 12.7517 23.5603 13.5141V14.0653C23.5603 12.5415 22.2448 11.3065 20.6216 11.3065C19.8096 11.3065 19.1519 11.924 19.1519 12.6863V13.2376C19.1519 11.7137 17.8364 10.4787 16.2132 10.4787C15.4012 10.4787 14.7435 11.0962 14.7435 11.8586V12.4099C14.7435 12.1649 14.7169 11.9703 14.6655 11.816L14.2172 4.70795C14.1566 3.74677 13.3339 3 12.3771 3C11.4136 3 10.6447 3.7636 10.6447 4.70555V11.5294V20.0588ZM22.8028 18.3529H24.5352V25.1765H22.8028V18.3529ZM19.338 18.3529H21.0704V25.1765H19.338V18.3529ZM15.8732 18.3529H17.6056V25.1765H15.8732V18.3529Z" fill="white"/>
<path d="M10.6447 20.0588L9.81187 20.6124L11.6447 23.3699V20.0588H10.6447ZM9.10873 17.7479L9.94155 17.1944H9.94155L9.10873 17.7479ZM4.06259 17.4525L3.13173 17.8179L4.06259 17.4525ZM6.18871 22.8691L7.11957 22.5037L6.18871 22.8691ZM8.09991 25.5523L7.44995 26.3123L7.45896 26.32L7.46814 26.3275L8.09991 25.5523ZM12.3771 32H11.3771V33H12.3771V32ZM19.3067 32V33H19.9204L20.1983 32.4527L19.3067 32ZM21.0391 28.5882L21.9307 28.1355L21.0391 26.3795L20.1474 28.1355L21.0391 28.5882ZM22.7715 32L21.8798 32.4527L22.1577 33H22.7715V32ZM24.5039 32V33H25.5039V32H24.5039ZM27.1178 24.9217L27.962 25.4578L27.9685 25.4475L27.9748 25.4371L27.1178 24.9217ZM28 14.8931H29V14.8828L28.9998 14.8725L28 14.8931ZM14.6655 11.816L13.6675 11.8789L13.6757 12.0086L13.7167 12.1318L14.6655 11.816ZM14.2172 4.70795L13.2192 4.7709L14.2172 4.70795ZM10.6447 4.70555H9.64469H10.6447ZM24.5352 18.3529H25.5352V17.3529H24.5352V18.3529ZM24.5352 25.1765V26.1765H25.5352V25.1765H24.5352ZM22.8028 25.1765H21.8028V26.1765H22.8028V25.1765ZM21.0704 18.3529H22.0704V17.3529H21.0704V18.3529ZM21.0704 25.1765V26.1765H22.0704V25.1765H21.0704ZM19.338 25.1765H18.338V26.1765H19.338V25.1765ZM17.6056 18.3529H18.6056V17.3529H17.6056V18.3529ZM17.6056 25.1765V26.1765H18.6056V25.1765H17.6056ZM15.8732 25.1765H14.8732V26.1765H15.8732V25.1765ZM11.4775 19.5053L9.94155 17.1944L8.27591 18.3015L9.81187 20.6124L11.4775 19.5053ZM9.94155 17.1944C8.60708 15.1866 5.81805 14.4775 3.66558 15.5672L4.56889 17.3515C5.83397 16.7111 7.51284 17.1534 8.27591 18.3015L9.94155 17.1944ZM4.56889 17.3515L4.96705 17.15L4.06374 15.3656L3.66558 15.5672L4.56889 17.3515ZM4.06374 15.3656C3.17711 15.8144 2.76971 16.8956 3.13173 17.8179L4.99345 17.0871C4.99908 17.1015 5.00005 17.1126 5 17.1181C4.99995 17.123 4.99918 17.1243 4.99949 17.1235C4.99981 17.1226 4.99938 17.1245 4.9956 17.1289C4.99141 17.1337 4.98231 17.1423 4.96705 17.15L4.06374 15.3656ZM3.13173 17.8179L5.25785 23.2345L7.11957 22.5037L4.99345 17.0871L3.13173 17.8179ZM5.25785 23.2345C5.65456 24.2452 6.61161 25.5953 7.44995 26.3123L8.74987 24.7923C8.16156 24.2892 7.39696 23.2104 7.11957 22.5037L5.25785 23.2345ZM8.09991 25.5523C7.46814 26.3275 7.46808 26.3274 7.46805 26.3274C7.46806 26.3274 7.46803 26.3274 7.46805 26.3274C7.46809 26.3274 7.46819 26.3275 7.46836 26.3276C7.46869 26.3279 7.46927 26.3284 7.47011 26.3291C7.47178 26.3304 7.47446 26.3326 7.47812 26.3356C7.48543 26.3416 7.49663 26.3508 7.51146 26.3631C7.54113 26.3875 7.58531 26.4242 7.64192 26.4715C7.75518 26.5663 7.91793 26.7039 8.11359 26.8734C8.50596 27.2131 9.02591 27.6768 9.54305 28.1773C10.0647 28.6821 10.5622 29.2042 10.9223 29.6627C11.1029 29.8926 11.2311 30.0843 11.31 30.2329C11.3996 30.4018 11.3771 30.4255 11.3771 30.3453H13.3771C13.3771 29.9385 13.2209 29.5673 13.0766 29.2954C12.9216 29.0031 12.7157 28.7081 12.4953 28.4274C12.0534 27.8647 11.4816 27.2702 10.934 26.7401C10.3818 26.2057 9.83245 25.7162 9.42285 25.3615C9.21753 25.1837 9.04612 25.0387 8.92547 24.9378C8.86513 24.8873 8.81741 24.8477 8.78443 24.8205C8.76793 24.8069 8.75512 24.7963 8.74624 24.7891C8.7418 24.7854 8.73835 24.7826 8.73591 24.7806C8.73469 24.7796 8.73373 24.7788 8.73302 24.7782C8.73267 24.778 8.73238 24.7777 8.73216 24.7775C8.73205 24.7774 8.73193 24.7773 8.73187 24.7773C8.73177 24.7772 8.73168 24.7772 8.09991 25.5523ZM11.3771 30.3453V32H13.3771V30.3453H11.3771ZM12.3771 33H19.3067V31H12.3771V33ZM20.1983 32.4527L21.9307 29.041L20.1474 28.1355L18.415 31.5473L20.1983 32.4527ZM20.1474 29.041L21.8798 32.4527L23.6631 31.5473L21.9307 28.1355L20.1474 29.041ZM22.7715 33H24.5039V31H22.7715V33ZM25.5039 32V30.3453H23.5039V32H25.5039ZM25.5039 30.3453C25.5039 30.3456 25.5039 30.338 25.5057 30.3214C25.5074 30.3051 25.5106 30.2826 25.516 30.2536C25.5271 30.1947 25.5456 30.1188 25.5738 30.0251C25.6306 29.8362 25.7173 29.6058 25.8309 29.3416C26.0581 28.8135 26.3679 28.2077 26.6878 27.624C27.0059 27.0435 27.3252 26.5006 27.5657 26.1018C27.6857 25.9028 27.7855 25.7406 27.855 25.6287C27.8898 25.5727 27.9169 25.5294 27.9352 25.5003C27.9443 25.4858 27.9512 25.4748 27.9557 25.4677C27.958 25.4641 27.9596 25.4615 27.9607 25.4598C27.9612 25.459 27.9616 25.4584 27.9618 25.458C27.9619 25.4579 27.962 25.4578 27.962 25.4577C27.962 25.4577 27.962 25.4577 27.962 25.4577C27.962 25.4577 27.962 25.4578 27.1178 24.9217C26.2736 24.3857 26.2735 24.3858 26.2735 24.3859C26.2734 24.3859 26.2734 24.386 26.2733 24.3861C26.2732 24.3863 26.273 24.3866 26.2728 24.3869C26.2724 24.3876 26.2718 24.3885 26.2711 24.3897C26.2696 24.392 26.2675 24.3953 26.2648 24.3995C26.2595 24.408 26.2517 24.4203 26.2417 24.4363C26.2217 24.4682 26.1926 24.5145 26.1559 24.5737C26.0825 24.692 25.9781 24.8616 25.853 25.069C25.6034 25.4829 25.2692 26.0508 24.9339 26.6629C24.6002 27.2717 24.2566 27.9401 23.9937 28.5514C23.7531 29.1107 23.5039 29.7879 23.5039 30.3453H25.5039ZM27.9748 25.4371C28.2755 24.937 28.5261 24.2947 28.7019 23.6709C28.8774 23.0479 29 22.3657 29 21.7759H27C27 22.1221 26.9221 22.6127 26.7768 23.1286C26.6317 23.6437 26.4413 24.1063 26.2608 24.4064L27.9748 25.4371ZM29 21.7759V14.8931H27V21.7759H29ZM28.9998 14.8725C28.9563 12.7586 27.1504 11.1342 25.03 11.1342V13.1342C26.156 13.1342 26.981 13.9798 27.0002 14.9136L28.9998 14.8725ZM25.03 11.1342C23.7261 11.1342 22.5603 12.1409 22.5603 13.5141H24.5603C24.5603 13.3625 24.7099 13.1342 25.03 13.1342V11.1342ZM22.5603 13.5141V14.0653H24.5603V13.5141H22.5603ZM24.5603 14.0653C24.5603 11.9306 22.7367 10.3065 20.6216 10.3065V12.3065C21.7529 12.3065 22.5603 13.1523 22.5603 14.0653H24.5603ZM20.6216 10.3065C19.3177 10.3065 18.1519 11.3131 18.1519 12.6863H20.1519C20.1519 12.5348 20.3015 12.3065 20.6216 12.3065V10.3065ZM18.1519 12.6863V13.2376H20.1519V12.6863H18.1519ZM20.1519 13.2376C20.1519 11.1029 18.3283 9.47873 16.2132 9.47873V11.4787C17.3445 11.4787 18.1519 12.3245 18.1519 13.2376H20.1519ZM16.2132 9.47873C14.9093 9.47873 13.7435 10.4854 13.7435 11.8586H15.7435C15.7435 11.707 15.8931 11.4787 16.2132 11.4787V9.47873ZM13.7435 11.8586V12.4099H15.7435V11.8586H13.7435ZM15.7435 12.4099C15.7435 12.1001 15.7108 11.79 15.6143 11.5001L13.7167 12.1318C13.7229 12.1505 13.7435 12.2298 13.7435 12.4099H15.7435ZM15.6635 11.753L15.2152 4.64501L13.2192 4.7709L13.6675 11.8789L15.6635 11.753ZM15.2152 4.64501C15.1203 3.1404 13.8449 2 12.3771 2V4C12.8228 4 13.1928 4.35313 13.2192 4.7709L15.2152 4.64501ZM12.3771 2C10.8736 2 9.64469 3.19915 9.64469 4.70555H11.6447C11.6447 4.32806 11.9537 4 12.3771 4V2ZM9.64469 4.70555V11.5294H11.6447V4.70555H9.64469ZM9.64469 11.5294V20.0588H11.6447V11.5294H9.64469ZM22.8028 19.3529H24.5352V17.3529H22.8028V19.3529ZM23.5352 18.3529V25.1765H25.5352V18.3529H23.5352ZM24.5352 24.1765H22.8028V26.1765H24.5352V24.1765ZM23.8028 25.1765V18.3529H21.8028V25.1765H23.8028ZM19.338 19.3529H21.0704V17.3529H19.338V19.3529ZM20.0704 18.3529V25.1765H22.0704V18.3529H20.0704ZM21.0704 24.1765H19.338V26.1765H21.0704V24.1765ZM20.338 25.1765V18.3529H18.338V25.1765H20.338ZM15.8732 19.3529H17.6056V17.3529H15.8732V19.3529ZM16.6056 18.3529V25.1765H18.6056V18.3529H16.6056ZM17.6056 24.1765H15.8732V26.1765H17.6056V24.1765ZM16.8732 25.1765V18.3529H14.8732V25.1765H16.8732Z" fill="black" fill-opacity="0.8" mask="url(#path-1-outside-1_348_155)"/>
</g>
<defs>
<filter id="filter0_d_348_155" x="0" y="0" width="32" height="37" filterUnits="userSpaceOnUse" color-interpolation-filters="sRGB">
<feFlood flood-opacity="0" result="BackgroundImageFix"/>
<feColorMatrix in="SourceAlpha" type="matrix" values="0 0 0 0 0 0 0 0 0 0 0 0 0 0 0 0 0 0 127 0" result="hardAlpha"/>
<feOffset dy="1"/>
<feGaussianBlur stdDeviation="1.5"/>
<feColorMatrix type="matrix" values="0 0 0 0 0 0 0 0 0 0 0 0 0 0 0 0 0 0 0.2 0"/>
<feBlend mode="normal" in2="BackgroundImageFix" result="effect1_dropShadow_348_155"/>
<feBlend mode="normal" in="SourceGraphic" in2="effect1_dropShadow_348_155" result="shape"/>
</filter>
</defs>
</svg>
